<?xml version="1.0" encoding="utf-8" ?><svg xmlns="http://www.w3.org/2000/svg" xmlns:xlink="http://www.w3.org/1999/xlink" width="1520" height="1128" viewBox="0 0 1520 1128"><clipPath id="cl_3"><rect width="1520" height="1128"/></clipPath><g clip-path="url(#cl_3)"><path fill="#D0E1FB" transform="translate(-637 -242)" d="M1528.81 271.453C1685.83 268.013 1845.45 276.984 1982.25 364.8C2081.38 428.431 2132.28 550.767 2058.57 654.081C1974.46 771.966 1812.81 833.738 1675.02 860.796C1691.42 878.885 1711.3 898.565 1728.43 916.211L1844.91 1035.8C1943.14 1138.31 2041.89 1240.32 2141.16 1341.83C2106.22 1342.8 2076.85 1346.08 2041.98 1342.13C1969.67 1333.94 1932.09 1292.8 1880.22 1247.3C1849.55 1220.39 1817.33 1190.59 1786.17 1164.24L1381.77 808.5C1516.02 805.795 1692.51 776.993 1790.73 679.313C1820.5 649.707 1843.07 609.573 1842.85 566.693C1842.65 527.429 1821.43 491.254 1794.12 464.37C1657.32 329.721 1321.3 329.94 1137.92 332.954C1103.73 333.516 1069.58 335.866 1035.39 336.188C1060.18 329.775 1091.83 324.172 1117.3 319.021C1252.88 291.566 1390.54 275.653 1528.81 271.453Z"/><path fill="#D0E1FB" transform="translate(-637 -242)" d="M1595.61 1162.61C1520.26 1163.91 1444.9 1161.28 1369.83 1154.74C1167.99 1135.66 880.455 1075.09 727.887 931.405C687.736 893.593 659.166 841.794 658.854 785.642C658.531 727.408 682.434 679.6 722.64 638.313C745.078 615.271 773.431 594.683 801.134 578.625C926.457 505.981 1078.88 483.587 1221.58 482.153C1223.56 482.137 1225.53 482.168 1227.5 482.248C1112.65 508.159 952.294 556.907 882.359 658.332C865.078 683.394 854.478 728.212 863.328 756.949C907.911 901.719 1129.22 950.111 1253.81 976.168C1313.62 989.086 1374.03 999.055 1434.81 1006.04C1408.74 1011.83 1365.15 1013.54 1337.08 1014.88C1171.45 1022.77 987.637 1002.47 843.394 915.815C774.312 874.313 713.998 800.7 738.216 717.021C739.69 711.929 742.86 703.23 743.776 698.414C749.221 685.036 753.76 675.574 760.439 662.774C751.475 670.58 743.35 679.299 736.196 688.791C715.28 711.703 700.527 750.486 701.822 781.522C703.746 827.625 737.255 872.632 771.763 902.101C913.673 1023.29 1122.16 1069 1303.13 1090.49C1371.57 1098.62 1442.79 1100.7 1510.21 1102.29C1537.46 1122.67 1567.52 1143.14 1595.61 1162.61Z"/><path fill="#080E19" fill-opacity="0.043137256" transform="translate(-637 -242)" d="M736.196 688.791C743.35 679.299 751.475 670.58 760.439 662.774C753.76 675.574 749.221 685.036 743.776 698.414C743.728 695.109 743.688 692.137 743.448 688.823C740.944 687.129 739.997 688.078 736.196 688.791Z"/></g></svg>